# xmcd
#
# Track frame offsets:
#	150
#	15377
#	30160
#	42035
#	64736
#	77192
#	94832
#	107207
#	125223
#	142066
#	156311
#	169699
#	186490
#	205402
#	221290
#
# Disc length: 3160 seconds
#
# Revision: 1
# Processed by: cddbd v1.5.1PL2 Copyright (c) Steve Scherf et al.
# Submitted via: EasyCDDAExtractor 9.0.0.1
#
DISCID=d20c560f
DTITLE=Tom Morrell and The Time-Warp Tophands - How the West Was Swung, Vol.11 (
DTITLE=Jugglin' Cats)
DYEAR=2000
DGENRE=Swing
TTITLE0=San Angelo
TTITLE1=Texas Sandman
TTITLE2=Lady From 29 Palms
TTITLE3=I Thought About You
TTITLE4=What Makes Bob Holler
TTITLE5=I Told You I Love You, Now Get Out
TTITLE6=Guess Who's In Town
TTITLE7=Wagon Wheels
TTITLE8=If you Ain't Lovin' Then You Ain't Livin'
TTITLE9=Baby, Don't You Go Away Mad
TTITLE10=Tears Flowed Like Wine
TTITLE11=Surrey With The Fringe On Top
TTITLE12=Slowboat To China
TTITLE13=It Happened In Monterey
TTITLE14=Trolley Song
EXTD=YEAR: 2000
EXTT0=
EXTT1=
EXTT2=
EXTT3=
EXTT4=
EXTT5=
EXTT6=
EXTT7=
EXTT8=
EXTT9=
EXTT10=
EXTT11=
EXTT12=
EXTT13=
EXTT14=
PLAYORDER=
